<?xml version="1.0" encoding="utf-8"?>
<!-- Generator: Adobe Illustrator 23.1.0, SVG Export Plug-In . SVG Version: 6.00 Build 0)  -->
<svg version="1.1" id="Слой_1" xmlns="http://www.w3.org/2000/svg" xmlns:xlink="http://www.w3.org/1999/xlink" x="0px" y="0px"
	 viewBox="0 0 40 40" style="enable-background:new 0 0 40 40;" xml:space="preserve">
<path d="M5.7,23.4c-3.1,1.9-3.3,7.1-0.5,11.5s7.5,6.4,10.6,4.4c3.1-1.9,3.3-7.1,0.5-11.5S8.7,21.4,5.7,23.4z M9.7,30.8
	c0.1-4.3-3.4-5.4-3.4-5.4s5.8,0.2,5.6,5.2c-0.2,5.5,3.2,7.2,3.2,7.2C13.3,37.4,9.5,35.4,9.7,30.8z M34,17.7
	c-3.2-1.7-7.8,0.5-10.3,5.1s-1.9,9.7,1.2,11.4c3.2,1.7,7.8-0.5,10.3-5.1S37.1,19.4,34,17.7z M30.6,26.5c-4.9,2.4-4.8,6.2-4.8,6.2
	c-0.5-1.6-0.6-5.9,3.5-8c3.9-2,3.1-5.6,3.1-5.6S35,24.3,30.6,26.5z M17.2,0c-3.6,0-6.6,4.2-6.6,9.4s2.9,9.4,6.6,9.4
	c3.6,0,6.6-4.2,6.6-9.4C23.7,4.2,20.8,0,17.2,0z M18.5,9.4c-3.2,4.5-1.2,7.7-1.2,7.7c-1.2-1.2-3.4-4.9-0.8-8.7c2.4-3.6,0-6.4,0-6.4
	S21.3,5.3,18.5,9.4z"/>
</svg>
