<svg width="100" height="100" viewBox="0 0 100 100" fill="none" xmlns="http://www.w3.org/2000/svg">
<path fill-rule="evenodd" clip-rule="evenodd" d="M28.8998 64.5996C29.7998 59.2996 30.1998 52.4996 28.1998 45.8996C24.1998 32.8996 16.0998 18.5996 33.2998 5.09961C28.8998 16.2996 30.3998 16.6996 35.1998 31.1996C38.1998 40.3996 34.5998 55.1996 31.1998 64.5996C36.2998 64.6996 40.4998 65.3996 42.1998 66.4996C43.3998 67.0996 42.8998 69.6996 42.8998 70.6996C45.7998 69.7996 49.6998 73.3996 47.9998 76.6996C46.7998 78.8996 45.2998 79.8996 43.3998 80.9996C42.6998 81.4996 41.7998 81.8996 40.8998 82.4996C47.9998 83.2996 52.8998 85.0996 52.8998 87.0996C52.8998 89.8996 42.5998 94.1996 29.9998 94.1996C17.3998 94.1996 7.2998 89.7996 7.2998 86.9996C7.2998 84.9996 12.2998 83.2996 19.6998 82.2996C17.4998 78.5996 17.4998 73.6996 17.4998 70.6996C17.4998 69.4996 16.9998 66.9996 18.1998 66.2996C19.7998 65.3996 23.9998 64.6996 28.8998 64.5996ZM70.5998 44.7996C76.1998 44.7996 80.8998 45.5996 82.5998 46.6996C83.7998 47.3996 83.2998 49.8996 83.2998 50.8996C86.1998 49.9996 90.0998 53.6996 88.3998 56.8996C87.1998 59.1996 85.6998 60.0996 83.9998 61.1996C83.1998 61.6996 82.1998 62.2996 81.3998 62.6996C88.4998 63.4996 93.3998 65.2996 93.3998 67.2996C93.3998 70.0996 83.0998 74.3996 70.4998 74.3996C57.8998 74.3996 47.6998 69.9996 47.6998 67.1996C47.6998 65.1996 52.6998 63.4996 60.1998 62.5996C57.8998 58.8996 57.8998 53.9996 57.8998 50.8996C57.8998 49.6996 57.3998 47.2996 58.5998 46.5996C60.3998 45.5996 65.0998 44.7996 70.5998 44.7996ZM83.2998 54.0996C83.1998 56.2996 82.7998 58.7996 81.7998 60.9996C82.2998 60.5996 82.6998 60.2996 83.0998 59.8996C84.5998 58.6996 85.8998 57.2996 86.4998 55.8996C87.0998 54.4996 85.3998 53.1996 83.8998 53.6996C83.6998 53.8996 83.4998 53.8996 83.2998 54.0996ZM42.8998 73.8996C42.6998 76.0996 42.2998 78.5996 41.3998 80.7996C41.8998 80.3996 42.2998 80.0996 42.6998 79.6996C44.1998 78.3996 45.4998 77.0996 46.0998 75.6996C46.6998 74.1996 44.9998 72.9996 43.4998 73.4996C43.2998 73.5996 43.1998 73.6996 42.8998 73.8996Z" fill="black"/>
</svg>
