<?xml version="1.0" standalone="no"?>
<!DOCTYPE svg PUBLIC "-//W3C//DTD SVG 20010904//EN"
 "http://www.w3.org/TR/2001/REC-SVG-20010904/DTD/svg10.dtd">
<svg version="1.0" xmlns="http://www.w3.org/2000/svg"
 width="276.000000pt" height="104.000000pt" viewBox="0 0 276.000000 104.000000"
 preserveAspectRatio="xMidYMid meet">

<g transform="translate(0.000000,104.000000) scale(0.100000,-0.100000)"
fill="#000000" stroke="none">
<path d="M1170 1022 c-39 -21 -134 -157 -297 -427 -157 -261 -219 -410 -208
-499 9 -65 29 -98 58 -94 19 3 23 11 28 58 19 175 175 478 412 800 38 52 81
107 95 122 14 16 22 33 19 42 -9 22 -64 20 -107 -2z"/>
<path d="M2270 989 c-14 -5 -49 -36 -78 -68 -38 -43 -72 -69 -127 -97 -102
-51 -115 -94 -29 -94 24 0 44 -4 44 -10 0 -11 -33 -66 -183 -303 -118 -184
-157 -256 -157 -286 0 -24 55 -81 79 -81 12 0 25 21 45 73 15 39 53 117 83
172 64 116 239 391 265 417 22 22 96 25 104 4 3 -8 -58 -114 -139 -243 -79
-125 -157 -252 -172 -282 -25 -51 -26 -56 -12 -85 16 -34 57 -62 79 -54 7 3
26 39 42 79 52 136 311 565 354 588 12 6 44 11 72 11 41 0 56 5 76 25 38 38
27 50 -50 53 -78 3 -78 1 -16 92 56 82 52 103 -17 93 -23 -4 -49 -24 -96 -73
-62 -65 -128 -110 -162 -110 -24 0 -18 16 31 92 25 39 43 77 40 84 -6 16 -39
17 -76 3z"/>
<path d="M711 890 c-60 -15 -168 -99 -293 -229 -122 -127 -123 -128 -177 -134
-43 -5 -62 -13 -88 -39 -18 -18 -32 -37 -30 -43 2 -5 21 -12 41 -15 l38 -5
-94 -121 c-52 -67 -98 -130 -102 -140 -9 -24 10 -34 66 -34 54 0 54 0 123 124
25 43 63 103 85 132 l41 54 63 0 c60 0 126 -15 126 -28 0 -4 -25 -55 -54 -114
-35 -69 -53 -114 -49 -127 7 -28 54 -61 86 -61 22 0 28 8 43 53 30 90 119 295
205 472 119 242 110 220 96 238 -15 20 -80 29 -126 17z m-71 -164 c0 -2 -7
-22 -15 -45 -20 -58 -71 -128 -105 -146 -30 -15 -120 -21 -120 -7 0 10 158
164 190 186 22 15 50 22 50 12z"/>
<path d="M1400 590 c-8 -6 -42 -9 -76 -9 -72 2 -76 0 -99 -46 -15 -34 -15 -38
0 -61 16 -24 15 -28 -9 -77 -43 -86 -125 -162 -148 -139 -15 15 3 99 43 202
21 56 25 76 16 82 -17 11 -32 10 -60 -3 -45 -20 -147 -275 -147 -366 0 -35 35
-65 68 -57 111 26 340 234 359 325 3 15 16 33 30 40 28 15 67 84 59 105 -6 16
-15 17 -36 4z"/>
<path d="M1615 540 c-116 -38 -239 -167 -279 -292 -44 -140 33 -179 163 -83
48 36 61 41 61 27 0 -51 66 -85 78 -39 5 22 80 171 118 235 17 28 17 34 4 42
-8 5 -28 10 -43 10 -30 0 -53 -20 -130 -114 -44 -53 -94 -83 -110 -67 -16 16
7 79 43 124 67 81 173 112 247 74 40 -21 63 -13 63 22 0 70 -100 99 -215 61z"/>
<path d="M2499 537 c-77 -32 -122 -69 -168 -138 -45 -67 -64 -137 -51 -192 14
-66 58 -97 137 -97 70 0 137 36 212 114 35 36 66 66 70 66 15 0 53 63 58 98
l6 37 -31 -27 c-30 -25 -46 -32 -138 -57 -52 -14 -82 -44 -65 -65 25 -30 -47
-94 -96 -84 -10 2 -23 15 -30 29 -35 72 90 269 169 269 28 0 34 -29 9 -46 -37
-26 -61 -57 -70 -89 -12 -43 -5 -47 34 -20 20 13 54 26 78 30 50 9 85 26 110
53 18 20 18 21 -2 34 -12 7 -21 23 -21 35 0 11 -14 33 -31 47 -39 33 -103 34
-180 3z"/>
</g>
</svg>
